# Wavefront OBJ file automatically generated by Tiled2Unity

# Vertices (Count = 66)
v -320 -224 0
v -352 -224 0
v -352 -192 0
v -320 -192 0
v -384 -224 0
v -384 -192 0
v -416 -224 0
v -416 -192 0
v -320 -256 0
v -352 -256 0
v -384 -256 0
v -416 -256 0
v -320 -288 0
v -352 -288 0
v -384 -288 0
v -416 -288 0
v -256 -320 0
v -288 -320 0
v -288 -288 0
v -256 -288 0
v -320 -320 0
v -352 -320 0
v -384 -320 0
v -416 -320 0
v -448 -320 0
v -448 -288 0
v -480 -320 0
v -480 -288 0
v -256 -352 0
v -288 -352 0
v -320 -352 0
v -352 -352 0
v -384 -352 0
v -416 -352 0
v -448 -352 0
v -480 -352 0
v -256 -384 0
v -288 -384 0
v -320 -384 0
v -352 -384 0
v -384 -384 0
v -416 -384 0
v -448 -384 0
v -480 -384 0
v -224 -416 0
v -256 -416 0
v -224 -384 0
v -288 -416 0
v -320 -416 0
v -352 -416 0
v -384 -416 0
v -416 -416 0
v -448 -416 0
v -480 -416 0
v -512 -416 0
v -512 -384 0
v -224 -448 0
v -256 -448 0
v -288 -448 0
v -320 -448 0
v -352 -448 0
v -384 -448 0
v -416 -448 0
v -448 -448 0
v -480 -448 0
v -512 -448 0

# Texture cooridinates (Count = 108)
vt 0.7501221 0.3501221
vt 0.7998779 0.3501221
vt 0.7998779 0.3998779
vt 0.7501221 0.3998779
vt 0.8001221 0.3501221
vt 0.849878 0.3501221
vt 0.849878 0.3998779
vt 0.8001221 0.3998779
vt 0.8501221 0.3501221
vt 0.8998779 0.3501221
vt 0.8998779 0.3998779
vt 0.8501221 0.3998779
vt 0.7501221 0.3001221
vt 0.7998779 0.3001221
vt 0.7998779 0.3498779
vt 0.7501221 0.3498779
vt 0.8001221 0.3001221
vt 0.849878 0.3001221
vt 0.849878 0.3498779
vt 0.8001221 0.3498779
vt 0.8501221 0.3001221
vt 0.8998779 0.3001221
vt 0.8998779 0.3498779
vt 0.8501221 0.3498779
vt 0.7501221 0.2501221
vt 0.7998779 0.2501221
vt 0.7998779 0.2998779
vt 0.7501221 0.2998779
vt 0.8001221 0.2501221
vt 0.849878 0.2501221
vt 0.849878 0.2998779
vt 0.8001221 0.2998779
vt 0.8501221 0.2501221
vt 0.8998779 0.2501221
vt 0.8998779 0.2998779
vt 0.8501221 0.2998779
vt 0.650122 0.2001221
vt 0.6998779 0.2001221
vt 0.6998779 0.2498779
vt 0.650122 0.2498779
vt 0.7001221 0.2001221
vt 0.7498779 0.2001221
vt 0.7498779 0.2498779
vt 0.7001221 0.2498779
vt 0.7501221 0.2001221
vt 0.7998779 0.2001221
vt 0.7998779 0.2498779
vt 0.7501221 0.2498779
vt 0.8001221 0.2001221
vt 0.849878 0.2001221
vt 0.849878 0.2498779
vt 0.8001221 0.2498779
vt 0.8501221 0.2001221
vt 0.8998779 0.2001221
vt 0.8998779 0.2498779
vt 0.8501221 0.2498779
vt 0.900122 0.2001221
vt 0.9498779 0.2001221
vt 0.9498779 0.2498779
vt 0.900122 0.2498779
vt 0.9501221 0.2001221
vt 0.9998779 0.2001221
vt 0.9998779 0.2498779
vt 0.9501221 0.2498779
vt 0.650122 0.1501221
vt 0.6998779 0.1501221
vt 0.6998779 0.1998779
vt 0.650122 0.1998779
vt 0.7001221 0.1501221
vt 0.7498779 0.1501221
vt 0.7498779 0.1998779
vt 0.7001221 0.1998779
vt 0.7501221 0.1501221
vt 0.7998779 0.1501221
vt 0.7998779 0.1998779
vt 0.7501221 0.1998779
vt 0.8001221 0.1501221
vt 0.849878 0.1501221
vt 0.849878 0.1998779
vt 0.8001221 0.1998779
vt 0.8501221 0.1501221
vt 0.8998779 0.1501221
vt 0.8998779 0.1998779
vt 0.8501221 0.1998779
vt 0.900122 0.1501221
vt 0.9498779 0.1501221
vt 0.9498779 0.1998779
vt 0.900122 0.1998779
vt 0.9501221 0.1501221
vt 0.9998779 0.1501221
vt 0.9998779 0.1998779
vt 0.9501221 0.1998779
vt 0.650122 0.1001221
vt 0.6998779 0.1001221
vt 0.6998779 0.1498779
vt 0.650122 0.1498779
vt 0.6001221 0.4001221
vt 0.6498779 0.4001221
vt 0.6498779 0.4498779
vt 0.6001221 0.4498779
vt 0.650122 0.4001221
vt 0.6998779 0.4001221
vt 0.6998779 0.4498779
vt 0.650122 0.4498779
vt 0.7001221 0.4001221
vt 0.7498779 0.4001221
vt 0.7498779 0.4498779
vt 0.7001221 0.4498779

# Normal
vn 0 0 -1

# Groups (Count = 1)

g mesh_0001
f 1/1/1 2/2/1 3/3/1 4/4/1
f 2/5/1 5/6/1 6/7/1 3/8/1
f 5/9/1 7/10/1 8/11/1 6/12/1
f 9/13/1 10/14/1 2/15/1 1/16/1
f 10/17/1 11/18/1 5/19/1 2/20/1
f 11/21/1 12/22/1 7/23/1 5/24/1
f 13/25/1 14/26/1 10/27/1 9/28/1
f 14/29/1 15/30/1 11/31/1 10/32/1
f 15/33/1 16/34/1 12/35/1 11/36/1
f 17/37/1 18/38/1 19/39/1 20/40/1
f 18/41/1 21/42/1 13/43/1 19/44/1
f 21/45/1 22/46/1 14/47/1 13/48/1
f 22/49/1 23/50/1 15/51/1 14/52/1
f 23/53/1 24/54/1 16/55/1 15/56/1
f 24/57/1 25/58/1 26/59/1 16/60/1
f 25/61/1 27/62/1 28/63/1 26/64/1
f 29/65/1 30/66/1 18/67/1 17/68/1
f 30/69/1 31/70/1 21/71/1 18/72/1
f 31/73/1 32/74/1 22/75/1 21/76/1
f 32/77/1 33/78/1 23/79/1 22/80/1
f 33/81/1 34/82/1 24/83/1 23/84/1
f 34/85/1 35/86/1 25/87/1 24/88/1
f 35/89/1 36/90/1 27/91/1 25/92/1
f 37/93/1 38/94/1 30/95/1 29/96/1
f 38/93/1 39/94/1 31/95/1 30/96/1
f 39/93/1 40/94/1 32/95/1 31/96/1
f 40/93/1 41/94/1 33/95/1 32/96/1
f 41/93/1 42/94/1 34/95/1 33/96/1
f 42/93/1 43/94/1 35/95/1 34/96/1
f 43/93/1 44/94/1 36/95/1 35/96/1
f 45/1/1 46/2/1 37/3/1 47/4/1
f 46/5/1 48/6/1 38/7/1 37/8/1
f 48/5/1 49/6/1 39/7/1 38/8/1
f 49/5/1 50/6/1 40/7/1 39/8/1
f 50/5/1 51/6/1 41/7/1 40/8/1
f 51/5/1 52/6/1 42/7/1 41/8/1
f 52/5/1 53/6/1 43/7/1 42/8/1
f 53/5/1 54/6/1 44/7/1 43/8/1
f 54/9/1 55/10/1 56/11/1 44/12/1
f 57/97/1 58/98/1 46/99/1 45/100/1
f 58/101/1 59/102/1 48/103/1 46/104/1
f 59/101/1 60/102/1 49/103/1 48/104/1
f 60/101/1 61/102/1 50/103/1 49/104/1
f 61/101/1 62/102/1 51/103/1 50/104/1
f 62/101/1 63/102/1 52/103/1 51/104/1
f 63/101/1 64/102/1 53/103/1 52/104/1
f 64/101/1 65/102/1 54/103/1 53/104/1
f 65/105/1 66/106/1 55/107/1 54/108/1

